<svg width="23" height="23" viewBox="0 0 23 23" fill="none" xmlns="http://www.w3.org/2000/svg">
<path fill-rule="evenodd" clip-rule="evenodd" d="M0 2.52941C0 1.4086 0.893586 0.5 1.99588 0.5H20.624C21.7264 0.5 22.62 1.4086 22.62 2.52941V21.4705C22.62 22.5914 21.7264 23.5 20.624 23.5H1.99588C0.893586 23.5 0 22.5914 0 21.4705V2.52941ZM4.3244 2.9353C3.22211 2.9353 2.32853 3.84389 2.32853 4.9647V19.1705C2.32853 20.2914 3.22211 21.2 4.3244 21.2H18.2957C19.3979 21.2 20.2914 20.2914 20.2914 19.1705V4.9647C20.2914 3.84389 19.3979 2.9353 18.2957 2.9353H4.3244ZM4.25788 3.74705C3.70674 3.74705 3.25993 4.20136 3.25993 4.76177V19.4412C3.25993 20.0016 3.70674 20.4559 4.25788 20.4559H18.4952C19.0464 20.4559 19.493 20.0016 19.493 19.4412V4.76177C19.493 4.20136 19.0464 3.74705 18.4952 3.74705H4.25788ZM7.80257 10.5875L9.30352 13.2177H10.8895L9.23957 10.3602C9.67249 10.1581 10.0202 9.85879 10.2828 9.46186C10.5454 9.05783 10.6766 8.62124 10.6766 8.15223C10.6766 7.45953 10.4353 6.86785 9.9528 6.37717C9.4703 5.88652 8.88479 5.64117 8.19643 5.64117H5.2159V13.2177H6.68487V10.5875H7.80257ZM6.68487 9.27788V7.03741H8.19643C8.47318 7.03741 8.71087 7.14565 8.90958 7.36212C9.10838 7.57859 9.20764 7.84194 9.20764 8.15223C9.20764 8.46254 9.10838 8.72946 8.90958 8.95317C8.71087 9.16965 8.47318 9.27788 8.19643 9.27788H6.68487Z" fill="#0F1214"/>
</svg>
